HIERARCHY
ROOT root
{
	OFFSET 0.000000 0.000000 0.000000
	CHANNELS 6 Xposition Yposition Zposition Zrotation Yrotation Xrotation
	JOINT lhip
	{
		OFFSET 0.058581 -0.082280 -0.017664
		CHANNELS 3 Zrotation Yrotation Xrotation
		JOINT lknee
		{
			OFFSET 0.043451 -0.386469 0.008037
			CHANNELS 3 Zrotation Yrotation Xrotation
			JOINT lankle
			{
				OFFSET -0.014790 -0.426874 -0.037428
				CHANNELS 3 Zrotation Yrotation Xrotation
				JOINT ltoe
				{
					OFFSET 0.041054 -0.060286 0.122042
					CHANNELS 3 Zrotation Yrotation Xrotation
					End Site
					{
						OFFSET 0.000000 0.000000 0.000000
					}
				}
			}
		}
	}
	JOINT rhip
	{
		OFFSET -0.060310 -0.090513 -0.013543
		CHANNELS 3 Zrotation Yrotation Xrotation
		JOINT rknee
		{
			OFFSET -0.043257 -0.383688 -0.004843
			CHANNELS 3 Zrotation Yrotation Xrotation
			JOINT rankle
			{
				OFFSET 0.019056 -0.420046 -0.034562
				CHANNELS 3 Zrotation Yrotation Xrotation
				JOINT rtoe
				{
					OFFSET -0.034840 -0.062106 0.130323
					CHANNELS 3 Zrotation Yrotation Xrotation
					End Site
					{
						OFFSET 0.000000 0.000000 0.000000
					}
				}
			}
		}
	}
	JOINT lowerback
	{
		OFFSET 0.004439 0.124404 -0.038385
		CHANNELS 3 Zrotation Yrotation Xrotation
		JOINT upperback
		{
			OFFSET 0.004488 0.137956 0.026820
			CHANNELS 3 Zrotation Yrotation Xrotation
			JOINT chest
			{
				OFFSET -0.002265 0.056032 0.002855
				CHANNELS 3 Zrotation Yrotation Xrotation
				JOINT lowerneck
				{
					OFFSET -0.013390 0.211636 -0.033468
					CHANNELS 3 Zrotation Yrotation Xrotation
					JOINT upperneck
					{
						OFFSET 0.010113 0.088937 0.050410
						CHANNELS 3 Zrotation Yrotation Xrotation
						End Site
						{
							OFFSET 0.000000 0.000000 0.000000
						}
					}
				}
				JOINT lclavicle
				{
					OFFSET 0.071702 0.114000 -0.018898
					CHANNELS 3 Zrotation Yrotation Xrotation
					JOINT lshoulder
					{
						OFFSET 0.122921 0.045205 -0.019046
						CHANNELS 3 Zrotation Yrotation Xrotation
						JOINT lelbow
						{
							OFFSET 0.255332 -0.015649 -0.022946
							CHANNELS 3 Zrotation Yrotation Xrotation
							JOINT lwrist
							{
								OFFSET 0.265709 0.012698 -0.007375
								CHANNELS 3 Zrotation Yrotation Xrotation
								End Site
								{
									OFFSET 0.000000 0.000000 0.000000
								}
							}
						}
					}
				}
				JOINT rclavicle
				{
					OFFSET -0.082954 0.112472 -0.023707
					CHANNELS 3 Zrotation Yrotation Xrotation
					JOINT rshoulder
					{
						OFFSET -0.113228 0.046853 -0.008472
						CHANNELS 3 Zrotation Yrotation Xrotation
						JOINT relbow
						{
							OFFSET -0.260127 -0.014369 -0.031269
							CHANNELS 3 Zrotation Yrotation Xrotation
							JOINT rwrist
							{
								OFFSET -0.269108 0.006794 -0.006027
								CHANNELS 3 Zrotation Yrotation Xrotation
								End Site
								{
									OFFSET 0.000000 0.000000 0.000000
								}
							}
						}
					}
				}
			}
		}
	}
}
MOTION
Frames: 7
Frame Time: 0.033333
-1.953428 0.319935 1.022157 84.404502 0.445506 90.911009 1.976409 0.564454 3.843579 -4.059840 -8.143298 1.601729 3.130699 11.956474 -13.974541 0.000000 -0.000000 0.000000 -3.258809 -2.007020 -6.882555 3.126178 -0.221559 17.352374 5.930434 -5.365447 -11.845713 0.000000 -0.000000 0.000000 -0.748547 -0.313006 -6.697735 1.993913 -3.948386 7.817119 -1.460419 -1.428433 3.977797 7.601089 -17.762101 15.709782 12.878867 -19.585641 2.215946 -16.745528 16.027846 8.028854 -51.471720 3.712806 10.625057 -5.696584 -51.095019 20.496765 0.113339 -3.136391 -1.887882 17.365174 -8.347111 3.894247 43.809097 -5.882731 10.813328 1.299799 46.205158 21.410149 19.030506 3.604075 4.776156 
-1.955167 0.318297 1.021723 83.772125 0.618146 90.294480 2.337118 0.923781 4.640419 -4.100962 -7.760779 1.290847 2.921899 11.718137 -13.982297 0.000000 -0.000000 0.000000 -2.955854 -1.801880 -6.395491 3.130073 0.076487 17.361060 5.434892 -5.264717 -11.857551 0.000000 -0.000000 0.000000 -0.838830 -0.170269 -5.920433 2.524833 -3.337274 7.624767 -1.211437 -1.595410 4.270613 8.027148 -18.908663 16.218839 11.468708 -21.194006 5.851213 -17.491853 15.951623 7.687203 -52.995230 2.264486 9.480319 -0.165290 -48.739890 13.255099 -1.004439 -2.312353 -3.395382 18.192873 -7.462925 3.134950 44.758088 -3.951244 9.931732 -3.422638 41.592569 14.312070 18.401056 3.292631 2.752138 
-1.958072 0.317822 1.021878 83.855149 0.836430 89.632412 2.684211 0.873396 5.042285 -4.164728 -7.616917 1.495275 2.939494 11.424240 -14.074303 0.000000 -0.000000 0.000000 -2.666598 -1.697003 -5.820592 3.176592 0.086700 17.273183 5.223932 -5.398014 -11.612033 0.000000 -0.000000 0.000000 -0.628818 -0.200467 -5.083095 3.062328 -3.418860 7.936319 -1.055431 -1.775592 4.187671 7.894677 -19.722705 17.281615 10.545843 -22.125652 8.151580 -18.254626 15.399116 7.659455 -55.004095 0.850746 8.207358 6.041748 -46.477103 6.025114 -2.084380 -2.214041 -7.002540 19.161093 -6.478287 2.986766 45.567026 -1.569043 8.677217 -7.813221 37.857541 7.799006 16.238010 2.769318 1.368927 
-1.960274 0.316989 1.021601 83.731660 0.706348 89.117740 2.610356 0.859125 5.344858 -4.146400 -7.308268 1.673590 3.031764 11.008420 -14.273842 0.000000 -0.000000 0.000000 -2.775028 -1.480234 -5.422704 3.093675 -0.261443 17.157831 5.232662 -5.009546 -11.394113 0.000000 -0.000000 0.000000 -0.355247 -0.203343 -4.135126 3.456752 -3.573910 7.888808 -0.922881 -1.575913 4.351475 8.326469 -19.903233 17.051720 9.599468 -23.087905 9.440307 -18.385354 15.582595 7.306976 -56.585222 -1.050308 7.716973 8.020858 -44.760482 3.042242 -0.512590 -2.011452 -8.940588 19.724710 -5.926330 2.574504 47.578856 1.021461 8.041893 -12.470801 34.748194 2.295588 12.296899 2.575045 0.552892 
-1.962410 0.316604 1.021776 83.650082 0.603127 88.842605 2.529457 0.776679 5.359871 -4.169283 -7.054094 1.936439 3.097105 10.812540 -14.338794 0.000000 -0.000000 0.000000 -2.839765 -1.277659 -5.374748 3.008648 -0.489850 17.297769 5.182842 -4.859762 -11.372897 0.000000 -0.000000 0.000000 -0.098160 -0.334496 -3.511322 3.691079 -3.698528 7.941700 -0.886784 -1.408062 4.496520 8.561934 -19.728410 16.470144 9.041461 -23.541381 10.081367 -18.280977 15.403917 7.279889 -57.525951 -1.608688 7.798593 9.139891 -44.787136 2.650738 0.156637 -2.001280 -9.320236 20.015673 -5.374796 2.441098 48.692626 2.377974 7.708026 -15.078865 33.636797 -0.448072 10.905490 2.399768 -0.084786 
-1.964752 0.316302 1.022260 83.438906 0.434871 88.782626 2.402911 1.081575 5.150825 -4.184034 -6.878886 2.194776 3.161770 10.379684 -14.396295 0.000000 -0.000000 0.000000 -2.938712 -1.373198 -5.632747 2.836945 -0.596376 17.501067 4.928945 -4.491703 -11.319676 0.000000 -0.000000 0.000000 0.412776 -0.412035 -2.849598 4.004971 -3.769438 7.926758 -0.868020 -1.165102 4.372705 8.701242 -19.592479 15.986341 8.497638 -23.915117 10.408470 -18.326108 15.168910 7.206111 -58.027941 -1.713998 8.066421 9.347262 -45.727057 3.583198 0.638358 -2.253230 -9.093582 20.351028 -4.634849 2.347856 49.881323 3.635150 7.267477 -17.620653 32.392787 -3.246992 9.747214 2.366528 -0.685945 
-1.967115 0.316319 1.022887 83.585320 0.233750 88.709773 2.238279 0.953240 5.089961 -4.234056 -6.696071 2.129225 3.163707 10.109948 -14.340109 0.000000 -0.000000 0.000000 -3.114624 -1.093044 -5.618614 2.752577 -0.925383 17.405049 4.719115 -4.610689 -11.454403 0.000000 -0.000000 0.000000 0.852053 -0.435754 -2.204742 4.472534 -3.820902 7.967067 -0.736038 -0.931680 4.240285 8.928463 -19.472496 15.399939 7.960502 -24.468840 10.601197 -18.307315 14.692936 7.326387 -58.403235 -1.811024 8.757705 9.210670 -47.098123 5.431957 0.161278 -2.213860 -8.372480 20.709809 -3.807832 2.510307 50.634414 4.483184 7.035787 -19.755890 31.442534 -5.105686 9.226231 2.315776 -0.872396 
